<?xml version="1.0" encoding="UTF-8" standalone="no"?>
<!DOCTYPE svg PUBLIC "-//W3C//DTD SVG 1.1//EN"
 "http://www.w3.org/Graphics/SVG/1.1/DTD/svg11.dtd">
<!-- Generated by graphviz version 2.43.0 (0)
 -->
<!-- Title: %3 Pages: 1 -->
<svg width="508pt" height="422pt"
 viewBox="0.00 0.00 508.00 422.00" xmlns="http://www.w3.org/2000/svg" xmlns:xlink="http://www.w3.org/1999/xlink">
<g id="graph0" class="graph" transform="scale(1 1) rotate(0) translate(4 418)">
<title>%3</title>
<polygon fill="white" stroke="transparent" points="-4,4 -4,-418 504,-418 504,4 -4,4"/>
<text text-anchor="middle" x="250" y="-397.2" font-family="Helvetica Bold" font-size="16.00">Line 1 — Output &#160;[SUCCESS]</text>
<g id="clust1" class="cluster">
<title>cluster_lhs</title>
<path fill="#ebf5fb" stroke="#2e86c1" d="M20,-8C20,-8 210,-8 210,-8 216,-8 222,-14 222,-20 222,-20 222,-368 222,-368 222,-374 216,-380 210,-380 210,-380 20,-380 20,-380 14,-380 8,-374 8,-368 8,-368 8,-20 8,-20 8,-14 14,-8 20,-8"/>
<text text-anchor="middle" x="115" y="-363.2" font-family="Helvetica,sans-Serif" font-size="16.00">LHS</text>
</g>
<g id="clust2" class="cluster">
<title>cluster_rhs</title>
<path fill="#eafaf1" stroke="#1e8449" d="M242,-8C242,-8 342,-8 342,-8 348,-8 354,-14 354,-20 354,-20 354,-290 354,-290 354,-296 348,-302 342,-302 342,-302 242,-302 242,-302 236,-302 230,-296 230,-290 230,-290 230,-20 230,-20 230,-14 236,-8 242,-8"/>
<text text-anchor="middle" x="292" y="-285.2" font-family="Helvetica,sans-Serif" font-size="16.00">RHS</text>
</g>
<g id="clust3" class="cluster">
<title>cluster_mgu</title>
<path fill="#fef9e7" stroke="#b7950b" d="M374,-152C374,-152 480,-152 480,-152 486,-152 492,-158 492,-164 492,-164 492,-368 492,-368 492,-374 486,-380 480,-380 480,-380 374,-380 374,-380 368,-380 362,-374 362,-368 362,-368 362,-164 362,-164 362,-158 368,-152 374,-152"/>
<text text-anchor="middle" x="427" y="-363.2" font-family="Helvetica,sans-Serif" font-size="16.00">MGU (σ)</text>
</g>
<!-- n_1 -->
<g id="node1" class="node">
<title>n_1</title>
<ellipse fill="#aed6f1" stroke="black" cx="187" cy="-328" rx="27" ry="18"/>
<text text-anchor="middle" x="187" y="-324.6" font-family="Helvetica,sans-Serif" font-size="13.00">+</text>
</g>
<!-- n_2 -->
<g id="node2" class="node">
<title>n_2</title>
<ellipse fill="#aed6f1" stroke="black" cx="128" cy="-250" rx="27" ry="18"/>
<text text-anchor="middle" x="128" y="-246.6" font-family="Helvetica,sans-Serif" font-size="13.00">&#45;</text>
</g>
<!-- n_1&#45;&gt;n_2 -->
<g id="edge9" class="edge">
<title>n_1&#45;&gt;n_2</title>
<path fill="none" stroke="#555555" d="M173.05,-312.47C169.99,-309.11 166.82,-305.49 164,-302 157.23,-293.61 150.29,-284.05 144.33,-275.48"/>
<polygon fill="#555555" stroke="#555555" points="147.06,-273.28 138.52,-267.01 141.29,-277.24 147.06,-273.28"/>
</g>
<!-- n_11 -->
<g id="node11" class="node">
<title>n_11</title>
<ellipse fill="#fad7a0" stroke="black" cx="191" cy="-250" rx="18" ry="18"/>
<text text-anchor="middle" x="191" y="-246.6" font-family="Helvetica,sans-Serif" font-size="13.00">2</text>
</g>
<!-- n_1&#45;&gt;n_11 -->
<g id="edge10" class="edge">
<title>n_1&#45;&gt;n_11</title>
<path fill="none" stroke="#555555" d="M187.91,-309.75C188.4,-300.43 189.02,-288.69 189.57,-278.17"/>
<polygon fill="#555555" stroke="#555555" points="193.07,-278.35 190.1,-268.18 186.08,-277.98 193.07,-278.35"/>
</g>
<!-- n_12 -->
<g id="node12" class="node">
<title>n_12</title>
<ellipse fill="#aed6f1" stroke="black" cx="265" cy="-250" rx="27" ry="18"/>
<text text-anchor="middle" x="265" y="-246.6" font-family="Helvetica,sans-Serif" font-size="13.00">+</text>
</g>
<!-- n_1&#45;&gt;n_12 -->
<!-- n_3 -->
<g id="node3" class="node">
<title>n_3</title>
<ellipse fill="#aed6f1" stroke="black" cx="104" cy="-178" rx="27" ry="18"/>
<text text-anchor="middle" x="104" y="-174.6" font-family="Helvetica,sans-Serif" font-size="13.00">*</text>
</g>
<!-- n_2&#45;&gt;n_3 -->
<g id="edge7" class="edge">
<title>n_2&#45;&gt;n_3</title>
<path fill="none" stroke="#555555" d="M122.19,-232.05C119.45,-224.06 116.11,-214.33 113.05,-205.4"/>
<polygon fill="#555555" stroke="#555555" points="116.31,-204.11 109.76,-195.79 109.69,-206.38 116.31,-204.11"/>
</g>
<!-- n_10 -->
<g id="node10" class="node">
<title>n_10</title>
<ellipse fill="#fad7a0" stroke="black" cx="167" cy="-178" rx="18" ry="18"/>
<text text-anchor="middle" x="167" y="-174.6" font-family="Helvetica,sans-Serif" font-size="13.00">1</text>
</g>
<!-- n_2&#45;&gt;n_10 -->
<g id="edge8" class="edge">
<title>n_2&#45;&gt;n_10</title>
<path fill="none" stroke="#555555" d="M137.05,-232.76C141.96,-223.95 148.12,-212.88 153.58,-203.08"/>
<polygon fill="#555555" stroke="#555555" points="156.73,-204.63 158.54,-194.19 150.61,-201.22 156.73,-204.63"/>
</g>
<!-- n_4 -->
<g id="node4" class="node">
<title>n_4</title>
<ellipse fill="#aed6f1" stroke="black" cx="79" cy="-106" rx="27" ry="18"/>
<text text-anchor="middle" x="79" y="-102.6" font-family="Helvetica,sans-Serif" font-size="13.00">+</text>
</g>
<!-- n_3&#45;&gt;n_4 -->
<g id="edge3" class="edge">
<title>n_3&#45;&gt;n_4</title>
<path fill="none" stroke="#555555" d="M98.08,-160.41C95.22,-152.42 91.73,-142.64 88.52,-133.64"/>
<polygon fill="#555555" stroke="#555555" points="91.72,-132.2 85.06,-123.96 85.12,-134.55 91.72,-132.2"/>
</g>
<!-- n_7 -->
<g id="node7" class="node">
<title>n_7</title>
<ellipse fill="#aed6f1" stroke="black" cx="151" cy="-106" rx="27" ry="18"/>
<text text-anchor="middle" x="151" y="-102.6" font-family="Helvetica,sans-Serif" font-size="13.00">/</text>
</g>
<!-- n_3&#45;&gt;n_7 -->
<g id="edge6" class="edge">
<title>n_3&#45;&gt;n_7</title>
<path fill="none" stroke="#555555" d="M114.67,-161.12C120.55,-152.34 127.99,-141.26 134.61,-131.42"/>
<polygon fill="#555555" stroke="#555555" points="137.71,-133.07 140.38,-122.82 131.9,-129.17 137.71,-133.07"/>
</g>
<!-- n_5 -->
<g id="node5" class="node">
<title>n_5</title>
<ellipse fill="#fad7a0" stroke="black" cx="34" cy="-34" rx="18" ry="18"/>
<text text-anchor="middle" x="34" y="-30.6" font-family="Helvetica,sans-Serif" font-size="13.00">x</text>
</g>
<!-- n_4&#45;&gt;n_5 -->
<g id="edge1" class="edge">
<title>n_4&#45;&gt;n_5</title>
<path fill="none" stroke="#555555" d="M68.79,-89.12C62.93,-80.01 55.47,-68.4 48.97,-58.28"/>
<polygon fill="#555555" stroke="#555555" points="51.91,-56.38 43.56,-49.86 46.02,-60.17 51.91,-56.38"/>
</g>
<!-- n_6 -->
<g id="node6" class="node">
<title>n_6</title>
<ellipse fill="#fad7a0" stroke="black" cx="88" cy="-34" rx="18" ry="18"/>
<text text-anchor="middle" x="88" y="-30.6" font-family="Helvetica,sans-Serif" font-size="13.00">y</text>
</g>
<!-- n_4&#45;&gt;n_6 -->
<g id="edge2" class="edge">
<title>n_4&#45;&gt;n_6</title>
<path fill="none" stroke="#555555" d="M81.18,-88.05C82.17,-80.35 83.37,-71.03 84.48,-62.36"/>
<polygon fill="#555555" stroke="#555555" points="87.98,-62.64 85.78,-52.28 81.03,-61.75 87.98,-62.64"/>
</g>
<!-- n_8 -->
<g id="node8" class="node">
<title>n_8</title>
<ellipse fill="#fad7a0" stroke="black" cx="142" cy="-34" rx="18" ry="18"/>
<text text-anchor="middle" x="142" y="-30.6" font-family="Helvetica,sans-Serif" font-size="13.00">u</text>
</g>
<!-- n_7&#45;&gt;n_8 -->
<g id="edge4" class="edge">
<title>n_7&#45;&gt;n_8</title>
<path fill="none" stroke="#555555" d="M148.82,-88.05C147.83,-80.35 146.63,-71.03 145.52,-62.36"/>
<polygon fill="#555555" stroke="#555555" points="148.97,-61.75 144.22,-52.28 142.02,-62.64 148.97,-61.75"/>
</g>
<!-- n_9 -->
<g id="node9" class="node">
<title>n_9</title>
<ellipse fill="#fad7a0" stroke="black" cx="196" cy="-34" rx="18" ry="18"/>
<text text-anchor="middle" x="196" y="-30.6" font-family="Helvetica,sans-Serif" font-size="13.00">v</text>
</g>
<!-- n_7&#45;&gt;n_9 -->
<g id="edge5" class="edge">
<title>n_7&#45;&gt;n_9</title>
<path fill="none" stroke="#555555" d="M161.21,-89.12C167.07,-80.01 174.53,-68.4 181.03,-58.28"/>
<polygon fill="#555555" stroke="#555555" points="183.98,-60.17 186.44,-49.86 178.09,-56.38 183.98,-60.17"/>
</g>
<!-- n_13 -->
<g id="node13" class="node">
<title>n_13</title>
<ellipse fill="#aed6f1" stroke="black" cx="265" cy="-178" rx="27" ry="18"/>
<text text-anchor="middle" x="265" y="-174.6" font-family="Helvetica,sans-Serif" font-size="13.00">&#45;</text>
</g>
<!-- n_12&#45;&gt;n_13 -->
<g id="edge15" class="edge">
<title>n_12&#45;&gt;n_13</title>
<path fill="none" stroke="#555555" d="M265,-231.7C265,-223.98 265,-214.71 265,-206.11"/>
<polygon fill="#555555" stroke="#555555" points="268.5,-206.1 265,-196.1 261.5,-206.1 268.5,-206.1"/>
</g>
<!-- n_18 -->
<g id="node18" class="node">
<title>n_18</title>
<ellipse fill="#a9dfbf" stroke="black" cx="328" cy="-178" rx="18" ry="18"/>
<text text-anchor="middle" x="328" y="-174.6" font-family="Helvetica Bold" font-size="13.00">r</text>
</g>
<!-- n_12&#45;&gt;n_18 -->
<g id="edge16" class="edge">
<title>n_12&#45;&gt;n_18</title>
<path fill="none" stroke="#555555" d="M278.36,-234.15C287.43,-224.08 299.54,-210.62 309.53,-199.52"/>
<polygon fill="#555555" stroke="#555555" points="312.26,-201.72 316.35,-191.94 307.06,-197.03 312.26,-201.72"/>
</g>
<!-- n_14 -->
<g id="node14" class="node">
<title>n_14</title>
<ellipse fill="#aed6f1" stroke="black" cx="265" cy="-106" rx="27" ry="18"/>
<text text-anchor="middle" x="265" y="-102.6" font-family="Helvetica,sans-Serif" font-size="13.00">*</text>
</g>
<!-- n_13&#45;&gt;n_14 -->
<g id="edge13" class="edge">
<title>n_13&#45;&gt;n_14</title>
<path fill="none" stroke="#555555" d="M265,-159.7C265,-151.98 265,-142.71 265,-134.11"/>
<polygon fill="#555555" stroke="#555555" points="268.5,-134.1 265,-124.1 261.5,-134.1 268.5,-134.1"/>
</g>
<!-- n_17 -->
<g id="node17" class="node">
<title>n_17</title>
<ellipse fill="#fad7a0" stroke="black" cx="328" cy="-106" rx="18" ry="18"/>
<text text-anchor="middle" x="328" y="-102.6" font-family="Helvetica,sans-Serif" font-size="13.00">1</text>
</g>
<!-- n_13&#45;&gt;n_17 -->
<g id="edge14" class="edge">
<title>n_13&#45;&gt;n_17</title>
<path fill="none" stroke="#555555" d="M278.36,-162.15C287.43,-152.08 299.54,-138.62 309.53,-127.52"/>
<polygon fill="#555555" stroke="#555555" points="312.26,-129.72 316.35,-119.94 307.06,-125.03 312.26,-129.72"/>
</g>
<!-- n_15 -->
<g id="node15" class="node">
<title>n_15</title>
<ellipse fill="#a9dfbf" stroke="black" cx="260" cy="-34" rx="18" ry="18"/>
<text text-anchor="middle" x="260" y="-30.6" font-family="Helvetica Bold" font-size="13.00">z</text>
</g>
<!-- n_14&#45;&gt;n_15 -->
<g id="edge11" class="edge">
<title>n_14&#45;&gt;n_15</title>
<path fill="none" stroke="#555555" d="M263.76,-87.7C263.21,-79.98 262.55,-70.71 261.94,-62.11"/>
<polygon fill="#555555" stroke="#555555" points="265.43,-61.83 261.22,-52.1 258.44,-62.33 265.43,-61.83"/>
</g>
<!-- n_16 -->
<g id="node16" class="node">
<title>n_16</title>
<ellipse fill="#a9dfbf" stroke="black" cx="314" cy="-34" rx="18" ry="18"/>
<text text-anchor="middle" x="314" y="-30.6" font-family="Helvetica Bold" font-size="13.00">s</text>
</g>
<!-- n_14&#45;&gt;n_16 -->
<g id="edge12" class="edge">
<title>n_14&#45;&gt;n_16</title>
<path fill="none" stroke="#555555" d="M275.87,-89.46C282.39,-80.15 290.8,-68.14 298.06,-57.77"/>
<polygon fill="#555555" stroke="#555555" points="300.96,-59.74 303.82,-49.54 295.22,-55.72 300.96,-59.74"/>
</g>
<!-- mgu_19 -->
<g id="node19" class="node">
<title>mgu_19</title>
<text text-anchor="middle" x="427" y="-324.9" font-family="Courier,monospace" font-size="12.00">z &#160;→ &#160;+(x, y)</text>
</g>
<!-- mgu_20 -->
<g id="node20" class="node">
<title>mgu_20</title>
<text text-anchor="middle" x="427" y="-246.9" font-family="Courier,monospace" font-size="12.00">s &#160;→ &#160;/(u, v)</text>
</g>
<!-- mgu_19&#45;&gt;mgu_20 -->
<!-- mgu_21 -->
<g id="node21" class="node">
<title>mgu_21</title>
<text text-anchor="middle" x="427" y="-174.9" font-family="Courier,monospace" font-size="12.00">r &#160;→ &#160;2</text>
</g>
<!-- mgu_20&#45;&gt;mgu_21 -->
</g>
</svg>
