<?xml version="1.0" encoding="UTF-8" standalone="no"?>
<!DOCTYPE svg PUBLIC "-//W3C//DTD SVG 1.1//EN"
 "http://www.w3.org/Graphics/SVG/1.1/DTD/svg11.dtd">
<!-- Generated by graphviz version 2.43.0 (0)
 -->
<!-- Title: %3 Pages: 1 -->
<svg width="280pt" height="422pt"
 viewBox="0.00 0.00 280.00 422.00" xmlns="http://www.w3.org/2000/svg" xmlns:xlink="http://www.w3.org/1999/xlink">
<g id="graph0" class="graph" transform="scale(1 1) rotate(0) translate(4 418)">
<title>%3</title>
<polygon fill="white" stroke="transparent" points="-4,4 -4,-418 276,-418 276,4 -4,4"/>
<text text-anchor="middle" x="136" y="-397.2" font-family="Helvetica Bold" font-size="16.00">Line 1 — Input</text>
<g id="clust1" class="cluster">
<title>cluster_lhs</title>
<path fill="#ebf5fb" stroke="#2e86c1" d="M20,-8C20,-8 120,-8 120,-8 126,-8 132,-14 132,-20 132,-20 132,-368 132,-368 132,-374 126,-380 120,-380 120,-380 20,-380 20,-380 14,-380 8,-374 8,-368 8,-368 8,-20 8,-20 8,-14 14,-8 20,-8"/>
<text text-anchor="middle" x="70" y="-363.2" font-family="Helvetica,sans-Serif" font-size="16.00">LHS</text>
</g>
<g id="clust2" class="cluster">
<title>cluster_rhs</title>
<path fill="#eafaf1" stroke="#1e8449" d="M152,-8C152,-8 252,-8 252,-8 258,-8 264,-14 264,-20 264,-20 264,-290 264,-290 264,-296 258,-302 252,-302 252,-302 152,-302 152,-302 146,-302 140,-296 140,-290 140,-290 140,-20 140,-20 140,-14 146,-8 152,-8"/>
<text text-anchor="middle" x="202" y="-285.2" font-family="Helvetica,sans-Serif" font-size="16.00">RHS</text>
</g>
<!-- n_1 -->
<g id="node1" class="node">
<title>n_1</title>
<ellipse fill="#aed6f1" stroke="black" cx="97" cy="-328" rx="27" ry="18"/>
<text text-anchor="middle" x="97" y="-324.6" font-family="Helvetica,sans-Serif" font-size="13.00">+</text>
</g>
<!-- n_2 -->
<g id="node2" class="node">
<title>n_2</title>
<ellipse fill="#aed6f1" stroke="black" cx="43" cy="-250" rx="27" ry="18"/>
<text text-anchor="middle" x="43" y="-246.6" font-family="Helvetica,sans-Serif" font-size="13.00">&#45;</text>
</g>
<!-- n_1&#45;&gt;n_2 -->
<g id="edge7" class="edge">
<title>n_1&#45;&gt;n_2</title>
<path fill="none" stroke="#555555" d="M85.74,-311.41C83.5,-308.3 81.17,-305.05 79,-302 72.74,-293.22 65.91,-283.57 59.9,-275.04"/>
<polygon fill="#555555" stroke="#555555" points="62.61,-272.81 53.99,-266.65 56.89,-276.84 62.61,-272.81"/>
</g>
<!-- n_9 -->
<g id="node9" class="node">
<title>n_9</title>
<ellipse fill="#fad7a0" stroke="black" cx="106" cy="-250" rx="18" ry="18"/>
<text text-anchor="middle" x="106" y="-246.6" font-family="Helvetica,sans-Serif" font-size="13.00">2</text>
</g>
<!-- n_1&#45;&gt;n_9 -->
<g id="edge8" class="edge">
<title>n_1&#45;&gt;n_9</title>
<path fill="none" stroke="#555555" d="M99.04,-309.75C100.15,-300.36 101.56,-288.53 102.81,-277.94"/>
<polygon fill="#555555" stroke="#555555" points="106.3,-278.26 104,-267.92 99.35,-277.43 106.3,-278.26"/>
</g>
<!-- n_10 -->
<g id="node10" class="node">
<title>n_10</title>
<ellipse fill="#aed6f1" stroke="black" cx="175" cy="-250" rx="27" ry="18"/>
<text text-anchor="middle" x="175" y="-246.6" font-family="Helvetica,sans-Serif" font-size="13.00">+</text>
</g>
<!-- n_1&#45;&gt;n_10 -->
<!-- n_3 -->
<g id="node3" class="node">
<title>n_3</title>
<ellipse fill="#aed6f1" stroke="black" cx="43" cy="-178" rx="27" ry="18"/>
<text text-anchor="middle" x="43" y="-174.6" font-family="Helvetica,sans-Serif" font-size="13.00">*</text>
</g>
<!-- n_2&#45;&gt;n_3 -->
<g id="edge5" class="edge">
<title>n_2&#45;&gt;n_3</title>
<path fill="none" stroke="#555555" d="M43,-231.7C43,-223.98 43,-214.71 43,-206.11"/>
<polygon fill="#555555" stroke="#555555" points="46.5,-206.1 43,-196.1 39.5,-206.1 46.5,-206.1"/>
</g>
<!-- n_8 -->
<g id="node8" class="node">
<title>n_8</title>
<ellipse fill="#fad7a0" stroke="black" cx="106" cy="-178" rx="18" ry="18"/>
<text text-anchor="middle" x="106" y="-174.6" font-family="Helvetica,sans-Serif" font-size="13.00">1</text>
</g>
<!-- n_2&#45;&gt;n_8 -->
<g id="edge6" class="edge">
<title>n_2&#45;&gt;n_8</title>
<path fill="none" stroke="#555555" d="M56.36,-234.15C65.43,-224.08 77.54,-210.62 87.53,-199.52"/>
<polygon fill="#555555" stroke="#555555" points="90.26,-201.72 94.35,-191.94 85.06,-197.03 90.26,-201.72"/>
</g>
<!-- n_4 -->
<g id="node4" class="node">
<title>n_4</title>
<ellipse fill="#aed6f1" stroke="black" cx="43" cy="-106" rx="27" ry="18"/>
<text text-anchor="middle" x="43" y="-102.6" font-family="Helvetica,sans-Serif" font-size="13.00">+</text>
</g>
<!-- n_3&#45;&gt;n_4 -->
<g id="edge3" class="edge">
<title>n_3&#45;&gt;n_4</title>
<path fill="none" stroke="#555555" d="M43,-159.7C43,-151.98 43,-142.71 43,-134.11"/>
<polygon fill="#555555" stroke="#555555" points="46.5,-134.1 43,-124.1 39.5,-134.1 46.5,-134.1"/>
</g>
<!-- n_7 -->
<g id="node7" class="node">
<title>n_7</title>
<ellipse fill="#fad7a0" stroke="black" cx="106" cy="-106" rx="18" ry="18"/>
<text text-anchor="middle" x="106" y="-102.6" font-family="Helvetica,sans-Serif" font-size="13.00">z</text>
</g>
<!-- n_3&#45;&gt;n_7 -->
<g id="edge4" class="edge">
<title>n_3&#45;&gt;n_7</title>
<path fill="none" stroke="#555555" d="M56.36,-162.15C65.43,-152.08 77.54,-138.62 87.53,-127.52"/>
<polygon fill="#555555" stroke="#555555" points="90.26,-129.72 94.35,-119.94 85.06,-125.03 90.26,-129.72"/>
</g>
<!-- n_5 -->
<g id="node5" class="node">
<title>n_5</title>
<ellipse fill="#fad7a0" stroke="black" cx="38" cy="-34" rx="18" ry="18"/>
<text text-anchor="middle" x="38" y="-30.6" font-family="Helvetica,sans-Serif" font-size="13.00">x</text>
</g>
<!-- n_4&#45;&gt;n_5 -->
<g id="edge1" class="edge">
<title>n_4&#45;&gt;n_5</title>
<path fill="none" stroke="#555555" d="M41.76,-87.7C41.21,-79.98 40.55,-70.71 39.94,-62.11"/>
<polygon fill="#555555" stroke="#555555" points="43.43,-61.83 39.22,-52.1 36.44,-62.33 43.43,-61.83"/>
</g>
<!-- n_6 -->
<g id="node6" class="node">
<title>n_6</title>
<ellipse fill="#fad7a0" stroke="black" cx="92" cy="-34" rx="18" ry="18"/>
<text text-anchor="middle" x="92" y="-30.6" font-family="Helvetica,sans-Serif" font-size="13.00">u</text>
</g>
<!-- n_4&#45;&gt;n_6 -->
<g id="edge2" class="edge">
<title>n_4&#45;&gt;n_6</title>
<path fill="none" stroke="#555555" d="M53.87,-89.46C60.39,-80.15 68.8,-68.14 76.06,-57.77"/>
<polygon fill="#555555" stroke="#555555" points="78.96,-59.74 81.82,-49.54 73.22,-55.72 78.96,-59.74"/>
</g>
<!-- n_11 -->
<g id="node11" class="node">
<title>n_11</title>
<ellipse fill="#aed6f1" stroke="black" cx="175" cy="-178" rx="27" ry="18"/>
<text text-anchor="middle" x="175" y="-174.6" font-family="Helvetica,sans-Serif" font-size="13.00">&#45;</text>
</g>
<!-- n_10&#45;&gt;n_11 -->
<g id="edge13" class="edge">
<title>n_10&#45;&gt;n_11</title>
<path fill="none" stroke="#555555" d="M175,-231.7C175,-223.98 175,-214.71 175,-206.11"/>
<polygon fill="#555555" stroke="#555555" points="178.5,-206.1 175,-196.1 171.5,-206.1 178.5,-206.1"/>
</g>
<!-- n_16 -->
<g id="node16" class="node">
<title>n_16</title>
<ellipse fill="#fad7a0" stroke="black" cx="238" cy="-178" rx="18" ry="18"/>
<text text-anchor="middle" x="238" y="-174.6" font-family="Helvetica,sans-Serif" font-size="13.00">3</text>
</g>
<!-- n_10&#45;&gt;n_16 -->
<g id="edge14" class="edge">
<title>n_10&#45;&gt;n_16</title>
<path fill="none" stroke="#555555" d="M188.36,-234.15C197.43,-224.08 209.54,-210.62 219.53,-199.52"/>
<polygon fill="#555555" stroke="#555555" points="222.26,-201.72 226.35,-191.94 217.06,-197.03 222.26,-201.72"/>
</g>
<!-- n_12 -->
<g id="node12" class="node">
<title>n_12</title>
<ellipse fill="#aed6f1" stroke="black" cx="175" cy="-106" rx="27" ry="18"/>
<text text-anchor="middle" x="175" y="-102.6" font-family="Helvetica,sans-Serif" font-size="13.00">/</text>
</g>
<!-- n_11&#45;&gt;n_12 -->
<g id="edge11" class="edge">
<title>n_11&#45;&gt;n_12</title>
<path fill="none" stroke="#555555" d="M175,-159.7C175,-151.98 175,-142.71 175,-134.11"/>
<polygon fill="#555555" stroke="#555555" points="178.5,-134.1 175,-124.1 171.5,-134.1 178.5,-134.1"/>
</g>
<!-- n_15 -->
<g id="node15" class="node">
<title>n_15</title>
<ellipse fill="#fad7a0" stroke="black" cx="238" cy="-106" rx="18" ry="18"/>
<text text-anchor="middle" x="238" y="-102.6" font-family="Helvetica,sans-Serif" font-size="13.00">1</text>
</g>
<!-- n_11&#45;&gt;n_15 -->
<g id="edge12" class="edge">
<title>n_11&#45;&gt;n_15</title>
<path fill="none" stroke="#555555" d="M188.36,-162.15C197.43,-152.08 209.54,-138.62 219.53,-127.52"/>
<polygon fill="#555555" stroke="#555555" points="222.26,-129.72 226.35,-119.94 217.06,-125.03 222.26,-129.72"/>
</g>
<!-- n_13 -->
<g id="node13" class="node">
<title>n_13</title>
<ellipse fill="#fad7a0" stroke="black" cx="170" cy="-34" rx="18" ry="18"/>
<text text-anchor="middle" x="170" y="-30.6" font-family="Helvetica,sans-Serif" font-size="13.00">z</text>
</g>
<!-- n_12&#45;&gt;n_13 -->
<g id="edge9" class="edge">
<title>n_12&#45;&gt;n_13</title>
<path fill="none" stroke="#555555" d="M173.76,-87.7C173.21,-79.98 172.55,-70.71 171.94,-62.11"/>
<polygon fill="#555555" stroke="#555555" points="175.43,-61.83 171.22,-52.1 168.44,-62.33 175.43,-61.83"/>
</g>
<!-- n_14 -->
<g id="node14" class="node">
<title>n_14</title>
<ellipse fill="#fad7a0" stroke="black" cx="224" cy="-34" rx="18" ry="18"/>
<text text-anchor="middle" x="224" y="-30.6" font-family="Helvetica,sans-Serif" font-size="13.00">s</text>
</g>
<!-- n_12&#45;&gt;n_14 -->
<g id="edge10" class="edge">
<title>n_12&#45;&gt;n_14</title>
<path fill="none" stroke="#555555" d="M185.87,-89.46C192.39,-80.15 200.8,-68.14 208.06,-57.77"/>
<polygon fill="#555555" stroke="#555555" points="210.96,-59.74 213.82,-49.54 205.22,-55.72 210.96,-59.74"/>
</g>
</g>
</svg>
